<svg width="64" height="64" viewBox="0 0 64 64" fill="none" xmlns="http://www.w3.org/2000/svg" role="img" aria-labelledby="favTitle">
  <title id="favTitle">MailTools Favicon</title>
  <rect x="4" y="4" width="56" height="56" rx="14" fill="#2563EB"/>
  <path d="M16 22C16 20.8954 16.8954 20 18 20H46C47.1046 20 48 20.8954 48 22V42C48 43.1046 47.1046 44 46 44H18C16.8954 44 16 43.1046 16 42V22Z" fill="white"/>
  <path d="M16 23L32 34L48 23" stroke="#2563EB" stroke-width="2.4" stroke-linecap="round" stroke-linejoin="round"/>
  <path d="M42 14L43.6 17.2L47 18.8L43.6 20.4L42 23.6L40.4 20.4L37 18.8L40.4 17.2L42 14Z" fill="white"/>
</svg>
